<svg width="17" height="19" viewBox="0 0 17 19" fill="none" xmlns="http://www.w3.org/2000/svg">
<path d="M4.10254 11.115C3.89587 11.115 3.71587 11.0383 3.56254 10.885C3.40921 10.7317 3.33254 10.5517 3.33254 10.345C3.33254 10.1383 3.40921 9.95867 3.56254 9.806C3.71587 9.65333 3.89587 9.57667 4.10254 9.576C4.30921 9.57533 4.48921 9.652 4.64254 9.806C4.79587 9.96 4.87254 10.14 4.87254 10.346C4.87254 10.552 4.79587 10.7317 4.64254 10.885C4.48921 11.0383 4.30921 11.115 4.10254 11.115ZM8.10254 11.115C7.89587 11.115 7.71587 11.0383 7.56254 10.885C7.40921 10.7317 7.33254 10.5517 7.33254 10.345C7.33254 10.1383 7.40921 9.95867 7.56254 9.806C7.71587 9.65333 7.89587 9.57667 8.10254 9.576C8.30921 9.57533 8.48921 9.652 8.64254 9.806C8.79587 9.96 8.87254 10.14 8.87254 10.346C8.87254 10.552 8.79587 10.7317 8.64254 10.885C8.48921 11.0383 8.30921 11.115 8.10254 11.115ZM12.1025 11.115C11.8959 11.115 11.7159 11.0383 11.5625 10.885C11.4092 10.7317 11.3325 10.5517 11.3325 10.345C11.3325 10.1383 11.4092 9.95867 11.5625 9.806C11.7159 9.65333 11.8959 9.57667 12.1025 9.576C12.3092 9.57533 12.4892 9.652 12.6425 9.806C12.7959 9.96 12.8725 10.14 12.8725 10.346C12.8725 10.552 12.7959 10.7317 12.6425 10.885C12.4892 11.0383 12.3092 11.115 12.1025 11.115ZM1.71854 18.23C1.25787 18.23 0.873539 18.076 0.565539 17.768C0.257539 17.46 0.103206 17.0757 0.102539 16.615V3.845C0.102539 3.385 0.256872 3.001 0.565539 2.693C0.874206 2.385 1.25854 2.23067 1.71854 2.23H3.48754V0H4.56454V2.23H11.7185V0H12.7185V2.23H14.4875C14.9475 2.23 15.3319 2.38433 15.6405 2.693C15.9492 3.00167 16.1032 3.386 16.1025 3.846V16.615C16.1025 17.075 15.9485 17.4593 15.6405 17.768C15.3325 18.0767 14.9479 18.2307 14.4865 18.23H1.71854ZM1.71854 17.23H14.4875C14.6409 17.23 14.7819 17.166 14.9105 17.038C15.0392 16.91 15.1032 16.7687 15.1025 16.614V7.846H1.10254V16.615C1.10254 16.7683 1.16654 16.9093 1.29454 17.038C1.42254 17.1667 1.56354 17.2307 1.71754 17.23" fill="#979797"/>
</svg>
