<svg width="34" height="35" viewBox="0 0 34 35" fill="none" xmlns="http://www.w3.org/2000/svg">
<g clip-path="url(#clip0_0_2253)">
<path d="M17.2211 14.795C16.7595 14.7493 16.2951 14.8477 15.8914 15.0769C15.4877 15.3061 15.1646 15.6548 14.9662 16.0752C14.7678 16.4957 14.7038 16.9673 14.7831 17.4256C14.8624 17.8839 15.081 18.3064 15.409 18.6353C15.737 18.9642 16.1584 19.1834 16.6155 19.2629C17.0726 19.3424 17.543 19.2783 17.9623 19.0794C18.3816 18.8804 18.7294 18.5564 18.9579 18.1517C19.1865 17.7469 19.2847 17.2812 19.2391 16.8184C19.1871 16.2995 18.9578 15.8145 18.5901 15.4458C18.2223 15.077 17.7387 14.8471 17.2211 14.795V14.795ZM22.6387 17.0401C22.6373 17.2853 22.6193 17.5301 22.5849 17.7729L24.1744 19.0229C24.2436 19.0804 24.2902 19.1607 24.306 19.2494C24.3217 19.3382 24.3056 19.4296 24.2605 19.5076L22.7569 22.1161C22.7112 22.1933 22.6398 22.2519 22.5553 22.2815C22.4708 22.3111 22.3786 22.3098 22.2949 22.2779L20.7164 21.6406C20.6293 21.6058 20.535 21.5933 20.442 21.604C20.3489 21.6148 20.2599 21.6486 20.1831 21.7023C19.9422 21.8686 19.689 22.0164 19.4258 22.1443C19.343 22.1846 19.2715 22.2448 19.2174 22.3194C19.1633 22.394 19.1284 22.4809 19.1157 22.5722L18.8791 24.2604C18.8636 24.3495 18.8176 24.4305 18.7492 24.4895C18.6807 24.5484 18.5939 24.5817 18.5036 24.5836H15.4964C15.4076 24.5821 15.322 24.5503 15.2537 24.4934C15.1854 24.4366 15.1384 24.3581 15.1206 24.271L14.8843 22.5853C14.871 22.4929 14.8352 22.4053 14.78 22.3301C14.7248 22.255 14.652 22.1946 14.5679 22.1545C14.305 22.0273 14.0527 21.8791 13.8135 21.7114C13.7368 21.658 13.6482 21.6245 13.5554 21.614C13.4627 21.6035 13.3688 21.6162 13.2822 21.6512L11.7041 22.2881C11.6204 22.3201 11.5283 22.3214 11.4437 22.2918C11.3592 22.2623 11.2878 22.2038 11.2421 22.1267L9.73849 19.5182C9.69328 19.4402 9.67713 19.3487 9.6929 19.26C9.70867 19.1712 9.75535 19.091 9.82462 19.0335L11.1679 17.976C11.2415 17.9174 11.2994 17.8413 11.3362 17.7546C11.373 17.668 11.3877 17.5734 11.3789 17.4796C11.3662 17.3327 11.3585 17.186 11.3585 17.039C11.3585 16.892 11.3659 16.7475 11.3789 16.6037C11.3867 16.5104 11.3714 16.4167 11.3341 16.3309C11.2969 16.2452 11.2389 16.17 11.1655 16.1123L9.82286 15.0548C9.75472 14.997 9.70902 14.917 9.69379 14.8289C9.67855 14.7407 9.69475 14.65 9.73954 14.5726L11.2432 11.964C11.2888 11.8868 11.3602 11.8283 11.4447 11.7987C11.5292 11.7691 11.6215 11.7703 11.7051 11.8022L13.2836 12.4396C13.3707 12.4743 13.465 12.4869 13.5581 12.4761C13.6511 12.4653 13.7401 12.4316 13.817 12.3779C14.0579 12.2115 14.311 12.0638 14.5742 11.9358C14.657 11.8955 14.7286 11.8354 14.7826 11.7607C14.8367 11.6861 14.8716 11.5993 14.8843 11.5079L15.1209 9.81977C15.1365 9.73061 15.1824 9.64964 15.2509 9.59068C15.3194 9.53172 15.4061 9.49844 15.4964 9.49652H18.5036C18.5924 9.49806 18.678 9.52987 18.7463 9.5867C18.8146 9.64354 18.8616 9.72201 18.8795 9.80919L19.1157 11.4949C19.129 11.5872 19.1648 11.6749 19.22 11.75C19.2752 11.8252 19.3481 11.8855 19.4321 11.9256C19.695 12.0529 19.9473 12.201 20.1866 12.3687C20.2632 12.4222 20.3519 12.4556 20.4446 12.4662C20.5373 12.4767 20.6312 12.4639 20.7178 12.429L22.296 11.792C22.3796 11.7601 22.4718 11.7588 22.5563 11.7883C22.6408 11.8178 22.7122 11.8763 22.7579 11.9535L24.2615 14.562C24.3067 14.6399 24.3229 14.7314 24.3071 14.8202C24.2914 14.9089 24.2447 14.9892 24.1754 15.0467L22.8321 16.1042C22.7582 16.1626 22.7 16.2386 22.6628 16.3252C22.6257 16.4119 22.6108 16.5066 22.6194 16.6005C22.631 16.7464 22.6387 16.8931 22.6387 17.0401Z" stroke="white" stroke-width="1.5" stroke-linecap="round" stroke-linejoin="round"/>
</g>
<rect opacity="0.1" x="1" y="1" width="32" height="32.0802" rx="13" stroke="white" stroke-width="2"/>
<defs>
<clipPath id="clip0_0_2253">
<rect width="18" height="18.0481" fill="white" transform="translate(8 8.01602)"/>
</clipPath>
</defs>
</svg>
